<svg width="35" height="35" viewBox="0 0 35 35" fill="none" xmlns="http://www.w3.org/2000/svg">
<path d="M19.6875 5.83337H13.8542V11.6667H19.6875V5.83337Z" fill="black"/>
<path d="M10.9375 23.3334H5.10419V29.1667H10.9375V23.3334Z" fill="black"/>
<path d="M10.9375 14.5834H5.10419V20.4167H10.9375V14.5834Z" fill="black"/>
<path d="M10.9375 5.83337H5.10419V11.6667H10.9375V5.83337Z" fill="black"/>
<path d="M28.4375 5.83337H22.6042V11.6667H28.4375V5.83337Z" fill="black"/>
<path d="M15.3125 26.0459V29.1667H18.375L27.0959 20.4605L24.0042 17.3688L15.3125 26.0459Z" fill="black"/>
<path d="M19.6875 17.5438V14.5834H13.8542V20.4167H16.8146L19.6875 17.5438Z" fill="black"/>
<path d="M29.6771 16.8584L27.6209 14.8021C27.3292 14.5105 26.8771 14.5105 26.5854 14.8021L25.0396 16.348L28.1313 19.4396L29.6771 17.8938C29.9688 17.6021 29.9688 17.15 29.6771 16.8584Z" fill="black"/>
</svg>
