<svg width="24" height="24" viewBox="0 0 24 24" fill="none" xmlns="http://www.w3.org/2000/svg">
<path d="M11.92 9.5H13.92V6.5H16.92V4.5H13.92V1.5H11.92V4.5H8.92V6.5H11.92V9.5ZM7.92 18.5C6.82 18.5 5.93 19.4 5.93 20.5C5.93 21.6 6.82 22.5 7.92 22.5C9.02 22.5 9.92 21.6 9.92 20.5C9.92 19.4 9.02 18.5 7.92 18.5ZM17.92 18.5C16.82 18.5 15.93 19.4 15.93 20.5C15.93 21.6 16.82 22.5 17.92 22.5C19.02 22.5 19.92 21.6 19.92 20.5C19.92 19.4 19.02 18.5 17.92 18.5ZM9.02 13.5H16.47C17.22 13.5 17.88 13.09 18.22 12.47L22.08 5.46L20.34 4.5L16.47 11.5H9.45L5.19 2.5H1.92V4.5H3.92L7.52 12.09L6.17 14.53C5.44 15.87 6.4 17.5 7.92 17.5H19.92V15.5H7.92L9.02 13.5Z" fill="black"/>
</svg>
