<svg width="30" height="30" viewBox="0 0 30 30" fill="none" xmlns="http://www.w3.org/2000/svg">
<path d="M14.775 7.5C16.1557 7.5 17.275 6.38071 17.275 5C17.275 3.61929 16.1557 2.5 14.775 2.5C13.3943 2.5 12.275 3.61929 12.275 5C12.275 6.38071 13.3943 7.5 14.775 7.5Z" fill="#F8F7F4"/>
<path d="M19.6375 10.1375C19.15 9.65 18.3125 8.75 16.6875 8.75C16.425 8.75 14.9125 8.75 13.5125 8.75C10.075 8.7375 7.27499 5.9375 7.27499 2.5H4.77499C4.77499 6.45 7.41249 9.8 11.025 10.8875V27.5H13.525V20H16.025V27.5H18.525V12.5625L23.4625 17.5L25.225 15.7375L19.6375 10.1375Z" fill="#F8F7F4"/>
</svg>
