<svg width="30" height="30" viewBox="0 0 30 30" fill="none" xmlns="http://www.w3.org/2000/svg">
<path d="M24.375 4.375L22.5 2.5L20.625 4.375L18.75 2.5L16.875 4.375L15 2.5L13.125 4.375L11.25 2.5L9.375 4.375L7.5 2.5V20H3.75V23.75C3.75 25.825 5.425 27.5 7.5 27.5H22.5C24.575 27.5 26.25 25.825 26.25 23.75V2.5L24.375 4.375ZM18.75 25H7.5C6.8125 25 6.25 24.4375 6.25 23.75V22.5H18.75V25ZM23.75 23.75C23.75 24.4375 23.1875 25 22.5 25C21.8125 25 21.25 24.4375 21.25 23.75V20H10V6.25H23.75V23.75Z" fill="#F8F7F4"/>
<path d="M18.75 8.75H11.25V11.25H18.75V8.75Z" fill="#F8F7F4"/>
<path d="M22.5 8.75H20V11.25H22.5V8.75Z" fill="#F8F7F4"/>
<path d="M18.75 12.5H11.25V15H18.75V12.5Z" fill="#F8F7F4"/>
<path d="M22.5 12.5H20V15H22.5V12.5Z" fill="#F8F7F4"/>
</svg>
