<svg width="30" height="30" viewBox="0 0 30 30" fill="none" xmlns="http://www.w3.org/2000/svg">
<path d="M20.6829 16.25C21.6204 16.25 22.4454 15.7375 22.8704 14.9625L27.3454 6.85C27.8079 6.025 27.2079 5 26.2579 5H7.75786L6.58286 2.5H2.49536V5H4.99536L9.49536 14.4875L7.80786 17.5375C6.89536 19.2125 8.09536 21.25 9.99536 21.25H24.9954V18.75H9.99536L11.3704 16.25H20.6829ZM8.94536 7.5H24.1329L20.6829 13.75H11.9079L8.94536 7.5ZM9.99536 22.5C8.62036 22.5 7.50786 23.625 7.50786 25C7.50786 26.375 8.62036 27.5 9.99536 27.5C11.3704 27.5 12.4954 26.375 12.4954 25C12.4954 23.625 11.3704 22.5 9.99536 22.5ZM22.4954 22.5C21.1204 22.5 20.0079 23.625 20.0079 25C20.0079 26.375 21.1204 27.5 22.4954 27.5C23.8704 27.5 24.9954 26.375 24.9954 25C24.9954 23.625 23.8704 22.5 22.4954 22.5Z" fill="#F8F7F4"/>
</svg>
