<svg width="24" height="25" viewBox="0 0 24 25" fill="none" xmlns="http://www.w3.org/2000/svg">
<path d="M22.47 7.15342C22 6.90639 21.51 6.70054 21 6.52556V18.9077C19.86 18.4857 18.69 18.2695 17.5 18.2695C15.6 18.2695 13.72 18.8253 12 19.8958V7.44161C10.38 6.48439 8.51 5.9183 6.5 5.9183C4.71 5.9183 3.02 6.37117 1.53 7.15342C1.2 7.3181 1 7.67834 1 8.05917V20.4927C1 21.0897 1.47 21.5117 2 21.5117C2.16 21.5117 2.32 21.4705 2.48 21.3882C3.69 20.7398 5.05 20.3281 6.5 20.3281C8.57 20.3281 10.48 21.1721 12 22.3866C13.52 21.1721 15.43 20.3281 17.5 20.3281C18.95 20.3281 20.31 20.7398 21.52 21.3985C21.68 21.4808 21.84 21.522 22 21.522C22.52 21.522 23 21.1 23 20.503V8.05917C23 7.67834 22.8 7.3181 22.47 7.15342ZM10 18.9077C8.86 18.4857 7.69 18.2695 6.5 18.2695C5.31 18.2695 4.14 18.4857 3 18.9077V8.70761C4.11 8.22386 5.28 7.97683 6.5 7.97683C7.7 7.97683 8.89 8.23415 10 8.71791V18.9077ZM19 2.31586L14 7.4622V17.2402L19 12.6085V2.31586Z" fill="#212121"/>
</svg>
