<svg width="16" height="16" viewBox="0 0 16 16" fill="none" xmlns="http://www.w3.org/2000/svg">
<path d="M1.33334 10.6667H14.6667V12H1.33334V10.6667ZM2.10001 7.96667L2.66667 6.98L3.23334 7.96667L4.10001 7.46667L3.53334 6.48H4.66667V5.48H3.53334L4.10001 4.5L3.23334 4L2.66667 4.98L2.10001 4L1.23334 4.5L1.80001 5.48H0.666672V6.48H1.80001L1.23334 7.46667L2.10001 7.96667ZM6.56667 7.46667L7.43334 7.96667L8.00001 6.98L8.56667 7.96667L9.43334 7.46667L8.86667 6.48H10V5.48H8.86667L9.43334 4.5L8.56667 4L8.00001 4.98L7.43334 4L6.56667 4.5L7.13334 5.48H6.00001V6.48H7.13334L6.56667 7.46667ZM15.3333 5.48H14.2L14.7667 4.5L13.9 4L13.3333 4.98L12.7667 4L11.9 4.5L12.4667 5.48H11.3333V6.48H12.4667L11.9 7.46667L12.7667 7.96667L13.3333 6.98L13.9 7.96667L14.7667 7.46667L14.2 6.48H15.3333V5.48Z" fill="#212121"/>
</svg>
